<?xml version="1.0" encoding="UTF-8" standalone="no"?>
<!-- Created with Inkscape (http://www.inkscape.org/) -->

<svg
   xmlns:dc="http://purl.org/dc/elements/1.1/"
   xmlns:cc="http://creativecommons.org/ns#"
   xmlns:rdf="http://www.w3.org/1999/02/22-rdf-syntax-ns#"
   xmlns:svg="http://www.w3.org/2000/svg"
   xmlns="http://www.w3.org/2000/svg"
   xmlns:sodipodi="http://sodipodi.sourceforge.net/DTD/sodipodi-0.dtd"
   xmlns:inkscape="http://www.inkscape.org/namespaces/inkscape"
   width="63.43531mm"
   height="71.641312mm"
   viewBox="0 0 63.435308 71.641312"
   version="1.1"
   id="svg1524"
   inkscape:version="0.92.3 (3ce5693, 2018-03-11)"
   sodipodi:docname="logo.svg"
   inkscape:export-filename="C:\Users\separ_000\Documents\GitHub\ecologie-mathematique-R\logo.png"
   inkscape:export-xdpi="300"
   inkscape:export-ydpi="300">
  <defs
     id="defs1518" />
  <sodipodi:namedview
     id="base"
     pagecolor="#ffffff"
     bordercolor="#666666"
     borderopacity="1.0"
     inkscape:pageopacity="0.0"
     inkscape:pageshadow="2"
     inkscape:zoom="1.7627273"
     inkscape:cx="32.086127"
     inkscape:cy="122.79526"
     inkscape:document-units="mm"
     inkscape:current-layer="layer1"
     showgrid="false"
     fit-margin-top="0"
     fit-margin-left="0"
     fit-margin-right="0"
     fit-margin-bottom="0"
     inkscape:window-width="1920"
     inkscape:window-height="1012"
     inkscape:window-x="0"
     inkscape:window-y="32"
     inkscape:window-maximized="1" />
  <metadata
     id="metadata1521">
    <rdf:RDF>
      <cc:Work
         rdf:about="">
        <dc:format>image/svg+xml</dc:format>
        <dc:type
           rdf:resource="http://purl.org/dc/dcmitype/StillImage" />
        <dc:title />
      </cc:Work>
    </rdf:RDF>
  </metadata>
  <g
     inkscape:label="Calque 1"
     inkscape:groupmode="layer"
     id="layer1"
     transform="translate(-105.16394,-76.796855)">
    <path
       transform="matrix(0.56100341,0.15032042,-0.15032042,0.56100341,107.92813,19.219908)"
       inkscape:transform-center-y="-1.0400914"
       inkscape:transform-center-x="0.6004954"
       d="m 212.78305,127.41353 -29.21688,7.82864 -21.38825,-21.38825 7.82864,-29.216878 29.21689,-7.82864 21.38824,21.388242 z"
       inkscape:randomized="0"
       inkscape:rounded="0"
       inkscape:flatsided="true"
       sodipodi:arg2="1.3089969"
       sodipodi:arg1="0.78539816"
       sodipodi:r2="15.123772"
       sodipodi:r1="30.247541"
       sodipodi:cy="106.02528"
       sodipodi:cx="191.39481"
       sodipodi:sides="6"
       id="path22"
       style="fill:#241c1f;fill-opacity:1;stroke:#000000;stroke-width:1.72178244;stroke-miterlimit:4;stroke-dasharray:none;stroke-opacity:1"
       sodipodi:type="star" />
    <g
       id="g1028"
       transform="translate(22.300595,-1.5119048)">
      <path
         sodipodi:nodetypes="zsccsccsszccccccccsszcsszccccszz"
         inkscape:connector-curvature="0"
         id="path983"
         d="m 139.37373,122.88544 c -0.69507,3.2381 -1.89283,7.12639 -4.53866,10.81165 -2.64584,3.68527 -6.52009,8.88244 -6.52009,8.88244 0,0 0.37797,5.10268 -0.47247,6.23661 -0.85045,1.13393 -11.03633,-3.78111 -11.90625,-4.25223 -1.91971,-1.03965 3.21279,3.96875 4.53571,4.7247 1.32292,0.75596 -3.40178,-0.18899 -4.91369,-0.66146 -1.5119,-0.47247 -10.67783,-3.96875 -12.47321,-5.48065 -1.79539,-1.51191 -2.64583,-4.44122 -4.91369,-4.63021 -2.267858,-0.18899 -6.376065,3.38615 -9.024422,5.52536 -2.648357,2.13921 -6.283616,5.90842 -6.283616,5.90842 v -44.12872 c 0,0 5.291667,-2.26786 7.370538,-1.98437 2.078868,0.28348 8.707119,5.19412 8.707119,5.19412 0,0 2.088121,-1.84457 1.521161,-4.77389 -0.56696,-2.92931 0.76661,-5.99521 0.76661,-5.99521 0,0 4.31314,4.34655 3.93517,8.78777 -0.37798,4.44122 0,3.49628 0.56696,3.40179 0.28348,-0.0473 1.51926,-2.72935 2.78537,-4.76856 1.26611,-2.03921 2.53992,-6.65893 3.50185,-5.0539 1.14362,1.9082 1.3324,5.05038 0.94296,7.11455 -0.38944,2.06417 -3.17169,6.14016 -4.39536,7.5271 0.29642,1.38695 1.6064,5.29167 2.74033,6.70908 1.13393,1.41741 4.51151,5.80717 5.85863,5.29167 2.56477,-0.98146 2.91379,-1.45911 3.57456,-2.48452 0.66077,-1.02542 1.18823,-2.3288 1.18823,-2.3288 0,0 2.56623,1.47331 1.90478,4.30813 -0.66146,2.83483 -0.80894,4.09596 -0.80894,4.09596 0,0 2.69071,2.14471 3.77976,1.98438 3.86198,-3.53461 11.43378,-12.18973 11.52828,-19.18229 0.0945,-6.99256 1.03811,-0.90089 1.20271,0.94365 0.1646,1.84453 0.53474,5.03933 -0.16033,8.27743 z"
         style="fill:#333333;fill-opacity:1;stroke:none;stroke-width:0.5;stroke-linecap:butt;stroke-linejoin:miter;stroke-miterlimit:4;stroke-dasharray:none;stroke-opacity:1" />
      <circle
         r="1.3336732"
         cy="130.28"
         cx="110.87985"
         id="path997"
         style="fill:#ffffff;fill-opacity:1;stroke:#fcf4f5;stroke-width:0.28268439;stroke-miterlimit:4;stroke-dasharray:none;stroke-opacity:1" />
    </g>
    <path
       style="fill:#333333;fill-opacity:1;stroke:none;stroke-width:0.26458332px;stroke-linecap:butt;stroke-linejoin:miter;stroke-opacity:1"
       d="m 153.7098,101.4817 c 1.34712,2.71383 2.24737,6.29953 0.33869,8.97085 -1.68781,1.96432 -4.33118,2.67159 -6.72448,3.36311 -2.17456,0.20653 0.88832,-0.56934 1.42542,-1.10048 1.87633,-1.12508 3.37546,-3.70308 2.02633,-5.77194 -1.07895,-1.41874 -2.58924,-3.11483 -1.76696,-5.03778 0.87001,-1.70983 2.70442,-0.275 3.98532,-0.0203 0.4685,0.29196 1.94227,-0.0889 0.71568,-0.40341 z"
       id="path1001"
       inkscape:connector-curvature="0" />
    <path
       sodipodi:type="star"
       style="fill:#333333;fill-opacity:1;stroke:none;stroke-width:0.5;stroke-miterlimit:4;stroke-dasharray:none;stroke-opacity:1"
       id="path1024"
       sodipodi:sides="6"
       sodipodi:cx="191.39481"
       sodipodi:cy="106.02528"
       sodipodi:r1="30.247541"
       sodipodi:r2="15.123772"
       sodipodi:arg1="0.78539816"
       sodipodi:arg2="1.3089969"
       inkscape:flatsided="true"
       inkscape:rounded="0"
       inkscape:randomized="0"
       d="m 212.78305,127.41353 -29.21688,7.82864 -21.38825,-21.38825 7.82864,-29.216878 29.21689,-7.82864 21.38824,21.388242 z"
       inkscape:transform-center-x="0.6004954"
       inkscape:transform-center-y="-1.0400914"
       transform="matrix(0.56100341,0.15032042,-0.15032042,0.56100341,59.596299,3.7597271)" />
    <text
       xml:space="preserve"
       style="font-style:normal;font-weight:normal;font-size:9.06169796px;line-height:1.25;font-family:sans-serif;letter-spacing:0px;word-spacing:0px;fill:#ffffff;fill-opacity:1;stroke:none;stroke-width:0.22654244"
       x="-159.61179"
       y="102.21517"
       id="text875"
       transform="scale(-1,1)"><tspan
         sodipodi:role="line"
         id="tspan873"
         x="-159.61179"
         y="102.21517"
         style="font-style:normal;font-variant:normal;font-weight:bold;font-stretch:normal;font-size:30.20566368px;font-family:Consolas;-inkscape-font-specification:'Consolas Bold';font-variant-ligatures:normal;font-variant-caps:normal;font-variant-numeric:normal;font-feature-settings:normal;text-align:start;writing-mode:lr-tb;text-anchor:start;fill:#ffffff;stroke-width:0.22654244">R</tspan></text>
    <path
       style="fill:#ffffff;fill-opacity:1;stroke:none;stroke-width:0.99526;stroke-linecap:butt;stroke-linejoin:miter;stroke-miterlimit:4;stroke-dasharray:none;stroke-opacity:1"
       d="M 325.66797 66.431641 C 325.66797 66.431641 323.01405 72.534383 324.14258 78.365234 C 325.27115 84.196104 321.11328 87.869141 321.11328 87.869141 C 321.11328 87.869141 315.24783 83.540903 310.10547 80.476562 L 289.63281 115.93359 L 309.90039 151.03711 C 313.50737 148.4323 317.09866 146.35171 319.58203 146.55859 C 324.09626 146.93481 325.78951 152.7659 329.36328 155.77539 C 332.93701 158.78488 351.18196 165.74509 354.19141 166.68555 C 357.20089 167.62616 366.60597 169.5067 363.97266 168.00195 C 361.33935 166.49721 351.12214 156.52821 354.94336 158.59766 C 356.67495 159.53543 376.94973 169.31764 378.64258 167.06055 C 380.33539 164.80341 379.58398 154.64648 379.58398 154.64648 C 379.58398 154.64648 387.29588 144.30241 392.5625 136.9668 C 397.82904 129.63123 400.21217 121.89081 401.5957 115.44531 C 402.97909 108.99978 402.2437 102.6403 401.91602 98.96875 C 401.58837 95.297166 399.7097 83.172953 399.52148 97.091797 C 399.33338 111.01063 384.26155 128.23773 376.57422 135.27344 C 374.40643 135.59258 369.05078 131.32422 369.05078 131.32422 C 369.05078 131.32422 369.34348 128.81272 370.66016 123.16992 C 371.97679 117.52716 366.86914 114.5957 366.86914 114.5957 C 366.86914 114.5957 365.81918 117.18933 364.50391 119.23047 C 363.18863 121.27156 362.49387 122.22218 357.38867 124.17578 C 354.70717 125.20189 347.98366 116.46396 345.72656 113.64258 C 343.46947 110.8212 340.86151 103.04978 340.27148 100.28906 C 342.70724 97.528307 348.24627 89.413469 349.02148 85.304688 C 349.79667 81.195914 349.4209 74.942839 347.14453 71.144531 C 345.22978 67.949685 342.69405 77.144037 340.17383 81.203125 C 337.6536 85.262213 335.19319 90.601202 334.62891 90.695312 C 333.50038 90.883382 332.74761 92.764154 333.5 83.923828 C 334.25235 75.08349 325.66797 66.431641 325.66797 66.431641 z "
       transform="matrix(0.26458333,0,0,0.26458333,105.16394,76.796855)"
       id="path4532" />
    <circle
       r="0.70239025"
       cy="111.23625"
       cx="196.41304"
       id="circle4534"
       style="fill:#000000;fill-opacity:1;stroke:#fcf4f5;stroke-width:0.14887811;stroke-miterlimit:4;stroke-dasharray:none;stroke-opacity:1" />
    <g
       id="g4544"
       transform="matrix(0.52665843,0,0,0.52665843,136.06594,88.403342)">
      <path
         sodipodi:nodetypes="zsccsccsszccccccccsszcsszccccszz"
         inkscape:connector-curvature="0"
         id="path4540"
         d="m 139.37373,122.88544 c -0.69507,3.2381 -1.89283,7.12639 -4.53866,10.81165 -2.64584,3.68527 -6.52009,8.88244 -6.52009,8.88244 0,0 0.37797,5.10268 -0.47247,6.23661 -0.85045,1.13393 -11.03633,-3.78111 -11.90625,-4.25223 -1.91971,-1.03965 3.21279,3.96875 4.53571,4.7247 1.32292,0.75596 -3.40178,-0.18899 -4.91369,-0.66146 -1.5119,-0.47247 -10.67783,-3.96875 -12.47321,-5.48065 -1.79539,-1.51191 -2.64583,-4.44122 -4.91369,-4.63021 -2.267858,-0.18899 -6.376065,3.38615 -9.024422,5.52536 -2.648357,2.13921 -6.283616,5.90842 -6.283616,5.90842 v -44.12872 c 0,0 5.291667,-2.26786 7.370538,-1.98437 2.078868,0.28348 8.707119,5.19412 8.707119,5.19412 0,0 2.088121,-1.84457 1.521161,-4.77389 -0.56696,-2.92931 0.76661,-5.99521 0.76661,-5.99521 0,0 4.31314,4.34655 3.93517,8.78777 -0.37798,4.44122 0,3.49628 0.56696,3.40179 0.28348,-0.0473 1.51926,-2.72935 2.78537,-4.76856 1.26611,-2.03921 2.53992,-6.65893 3.50185,-5.0539 1.14362,1.9082 1.3324,5.05038 0.94296,7.11455 -0.38944,2.06417 -3.17169,6.14016 -4.39536,7.5271 0.29642,1.38695 1.6064,5.29167 2.74033,6.70908 1.13393,1.41741 4.51151,5.80717 5.85863,5.29167 2.56477,-0.98146 2.91379,-1.45911 3.57456,-2.48452 0.66077,-1.02542 1.18823,-2.3288 1.18823,-2.3288 0,0 2.56623,1.47331 1.90478,4.30813 -0.66146,2.83483 -0.80894,4.09596 -0.80894,4.09596 0,0 2.69071,2.14471 3.77976,1.98438 3.86198,-3.53461 11.43378,-12.18973 11.52828,-19.18229 0.0945,-6.99256 1.03811,-0.90089 1.20271,0.94365 0.1646,1.84453 0.53474,5.03933 -0.16033,8.27743 z"
         style="fill:#333333;fill-opacity:1;stroke:none;stroke-width:0.5;stroke-linecap:butt;stroke-linejoin:miter;stroke-miterlimit:4;stroke-dasharray:none;stroke-opacity:1" />
      <circle
         r="1.3336732"
         cy="130.28"
         cx="110.87985"
         id="circle4542"
         style="fill:#ffffff;fill-opacity:1;stroke:#fcf4f5;stroke-width:0.28268439;stroke-miterlimit:4;stroke-dasharray:none;stroke-opacity:1" />
    </g>
    <ellipse
       style="fill:#ffffff;fill-opacity:0.05524862;stroke:none;stroke-width:1;stroke-miterlimit:4;stroke-dasharray:none;stroke-opacity:1"
       id="path4550"
       cx="199.36351"
       cy="91.026443"
       rx="14.831533"
       ry="15.164894" />
    <path
       sodipodi:type="star"
       style="fill:none;fill-opacity:1;stroke:#000000;stroke-width:1.72178244;stroke-miterlimit:4;stroke-dasharray:none;stroke-opacity:1"
       id="path4552"
       sodipodi:sides="6"
       sodipodi:cx="191.39481"
       sodipodi:cy="106.02528"
       sodipodi:r1="30.247541"
       sodipodi:r2="15.123772"
       sodipodi:arg1="0.78539816"
       sodipodi:arg2="1.3089969"
       inkscape:flatsided="true"
       inkscape:rounded="0"
       inkscape:randomized="0"
       d="m 212.78305,127.41353 -29.21688,7.82864 -21.38825,-21.38825 7.82864,-29.216878 29.21689,-7.82864 21.38824,21.388242 z"
       inkscape:transform-center-x="0.6004954"
       inkscape:transform-center-y="-1.0400914"
       transform="matrix(0.56100341,0.15032042,-0.15032042,0.56100341,107.92813,19.219908)"
       inkscape:export-xdpi="209.98"
       inkscape:export-ydpi="209.98" />
  </g>
</svg>
