<?xml version="1.0" encoding="UTF-8" standalone="no"?>
<!-- Created with Inkscape (http://www.inkscape.org/) -->

<svg
   xmlns:dc="http://purl.org/dc/elements/1.1/"
   xmlns:cc="http://creativecommons.org/ns#"
   xmlns:rdf="http://www.w3.org/1999/02/22-rdf-syntax-ns#"
   xmlns:svg="http://www.w3.org/2000/svg"
   xmlns="http://www.w3.org/2000/svg"
   xmlns:sodipodi="http://sodipodi.sourceforge.net/DTD/sodipodi-0.dtd"
   xmlns:inkscape="http://www.inkscape.org/namespaces/inkscape"
   width="63.43531mm"
   height="71.641312mm"
   viewBox="0 0 63.435308 71.641312"
   version="1.1"
   id="svg1524"
   inkscape:version="0.92.3 (2405546, 2018-03-11)"
   sodipodi:docname="logo.svg"
   inkscape:export-filename="C:\Users\separ_000\Documents\GitHub\ecologie-mathematique-R\logo.png"
   inkscape:export-xdpi="300"
   inkscape:export-ydpi="300">
  <defs
     id="defs1518" />
  <sodipodi:namedview
     id="base"
     pagecolor="#ffffff"
     bordercolor="#666666"
     borderopacity="1.0"
     inkscape:pageopacity="0.0"
     inkscape:pageshadow="2"
     inkscape:zoom="1.2464364"
     inkscape:cx="358.43222"
     inkscape:cy="117.90487"
     inkscape:document-units="mm"
     inkscape:current-layer="layer1"
     showgrid="false"
     fit-margin-top="0"
     fit-margin-left="0"
     fit-margin-right="0"
     fit-margin-bottom="0"
     inkscape:window-width="1440"
     inkscape:window-height="837"
     inkscape:window-x="1352"
     inkscape:window-y="-8"
     inkscape:window-maximized="1">
    <inkscape:grid
       type="xygrid"
       id="grid835" />
  </sodipodi:namedview>
  <metadata
     id="metadata1521">
    <rdf:RDF>
      <cc:Work
         rdf:about="">
        <dc:format>image/svg+xml</dc:format>
        <dc:type
           rdf:resource="http://purl.org/dc/dcmitype/StillImage" />
        <dc:title />
      </cc:Work>
    </rdf:RDF>
  </metadata>
  <g
     inkscape:label="Calque 1"
     inkscape:groupmode="layer"
     id="layer1"
     transform="translate(-105.16394,-76.796855)">
    <g
       id="g1028"
       transform="translate(22.300595,-1.5119048)">
      <path
         sodipodi:nodetypes="zsccsccsszccccccccsszcsszccccszz"
         inkscape:connector-curvature="0"
         id="path983"
         d="m 139.37373,122.88544 c -0.69507,3.2381 -1.89283,7.12639 -4.53866,10.81165 -2.64584,3.68527 -6.52009,8.88244 -6.52009,8.88244 0,0 0.37797,5.10268 -0.47247,6.23661 -0.85045,1.13393 -11.03633,-3.78111 -11.90625,-4.25223 -1.91971,-1.03965 3.21279,3.96875 4.53571,4.7247 1.32292,0.75596 -3.40178,-0.18899 -4.91369,-0.66146 -1.5119,-0.47247 -10.67783,-3.96875 -12.47321,-5.48065 -1.79539,-1.51191 -2.64583,-4.44122 -4.91369,-4.63021 -2.267858,-0.18899 -6.376065,3.38615 -9.024422,5.52536 -2.648357,2.13921 -6.283616,5.90842 -6.283616,5.90842 v -44.12872 c 0,0 5.291667,-2.26786 7.370538,-1.98437 2.078868,0.28348 8.707119,5.19412 8.707119,5.19412 0,0 2.088121,-1.84457 1.521161,-4.77389 -0.56696,-2.92931 0.76661,-5.99521 0.76661,-5.99521 0,0 4.31314,4.34655 3.93517,8.78777 -0.37798,4.44122 0,3.49628 0.56696,3.40179 0.28348,-0.0473 1.51926,-2.72935 2.78537,-4.76856 1.26611,-2.03921 2.53992,-6.65893 3.50185,-5.0539 1.14362,1.9082 1.3324,5.05038 0.94296,7.11455 -0.38944,2.06417 -3.17169,6.14016 -4.39536,7.5271 0.29642,1.38695 1.6064,5.29167 2.74033,6.70908 1.13393,1.41741 4.51151,5.80717 5.85863,5.29167 2.56477,-0.98146 2.91379,-1.45911 3.57456,-2.48452 0.66077,-1.02542 1.18823,-2.3288 1.18823,-2.3288 0,0 2.56623,1.47331 1.90478,4.30813 -0.66146,2.83483 -0.80894,4.09596 -0.80894,4.09596 0,0 2.69071,2.14471 3.77976,1.98438 3.86198,-3.53461 11.43378,-12.18973 11.52828,-19.18229 0.0945,-6.99256 1.03811,-0.90089 1.20271,0.94365 0.1646,1.84453 0.53474,5.03933 -0.16033,8.27743 z"
         style="fill:#333333;fill-opacity:1;stroke:none;stroke-width:0.5;stroke-linecap:butt;stroke-linejoin:miter;stroke-miterlimit:4;stroke-dasharray:none;stroke-opacity:1" />
      <circle
         r="1.3336732"
         cy="130.28"
         cx="110.87985"
         id="path997"
         style="fill:#ffffff;fill-opacity:1;stroke:#fcf4f5;stroke-width:0.28268439;stroke-miterlimit:4;stroke-dasharray:none;stroke-opacity:1" />
    </g>
    <path
       style="fill:#333333;fill-opacity:1;stroke:none;stroke-width:0.26458332px;stroke-linecap:butt;stroke-linejoin:miter;stroke-opacity:1"
       d="m 153.7098,101.4817 c 1.34712,2.71383 2.24737,6.29953 0.33869,8.97085 -1.68781,1.96432 -4.33118,2.67159 -6.72448,3.36311 -2.17456,0.20653 0.88832,-0.56934 1.42542,-1.10048 1.87633,-1.12508 3.37546,-3.70308 2.02633,-5.77194 -1.07895,-1.41874 -2.58924,-3.11483 -1.76696,-5.03778 0.87001,-1.70983 2.70442,-0.275 3.98532,-0.0203 0.4685,0.29196 1.94227,-0.0889 0.71568,-0.40341 z"
       id="path1001"
       inkscape:connector-curvature="0" />
    <path
       sodipodi:type="star"
       style="fill:#333333;fill-opacity:1;stroke:none;stroke-width:0.5;stroke-miterlimit:4;stroke-dasharray:none;stroke-opacity:1"
       id="path1024"
       sodipodi:sides="6"
       sodipodi:cx="191.39481"
       sodipodi:cy="106.02528"
       sodipodi:r1="30.247541"
       sodipodi:r2="15.123772"
       sodipodi:arg1="0.78539816"
       sodipodi:arg2="1.3089969"
       inkscape:flatsided="true"
       inkscape:rounded="0"
       inkscape:randomized="0"
       d="m 212.78305,127.41353 -29.21688,7.82864 -21.38825,-21.38825 7.82864,-29.216878 29.21689,-7.82864 21.38824,21.388242 z"
       inkscape:transform-center-x="0.6004954"
       inkscape:transform-center-y="-1.0400914"
       transform="matrix(0.56100341,0.15032042,-0.15032042,0.56100341,59.596299,3.7597271)" />
    <text
       xml:space="preserve"
       style="font-style:normal;font-weight:normal;font-size:9.06169796px;line-height:1.25;font-family:sans-serif;letter-spacing:0px;word-spacing:0px;fill:#ffffff;fill-opacity:1;stroke:none;stroke-width:0.22654244"
       x="-159.61179"
       y="102.21517"
       id="text875"
       transform="scale(-1,1)"><tspan
         sodipodi:role="line"
         id="tspan873"
         x="-159.61179"
         y="102.21517"
         style="font-style:normal;font-variant:normal;font-weight:bold;font-stretch:normal;font-size:30.20566368px;font-family:Consolas;-inkscape-font-specification:'Consolas Bold';font-variant-ligatures:normal;font-variant-caps:normal;font-variant-numeric:normal;font-feature-settings:normal;text-align:start;writing-mode:lr-tb;text-anchor:start;fill:#ffffff;stroke-width:0.22654244">R</tspan></text>
    <g
       id="g4544"
       transform="matrix(0.52665843,0,0,0.52665843,136.06594,88.403342)">
      <path
         sodipodi:nodetypes="zsccsccsszccccccccsszcsszccccszz"
         inkscape:connector-curvature="0"
         id="path4540"
         d="m 139.37373,122.88544 c -0.69507,3.2381 -1.89283,7.12639 -4.53866,10.81165 -2.64584,3.68527 -6.52009,8.88244 -6.52009,8.88244 0,0 0.37797,5.10268 -0.47247,6.23661 -0.85045,1.13393 -11.03633,-3.78111 -11.90625,-4.25223 -1.91971,-1.03965 3.21279,3.96875 4.53571,4.7247 1.32292,0.75596 -3.40178,-0.18899 -4.91369,-0.66146 -1.5119,-0.47247 -10.67783,-3.96875 -12.47321,-5.48065 -1.79539,-1.51191 -2.64583,-4.44122 -4.91369,-4.63021 -2.267858,-0.18899 -6.376065,3.38615 -9.024422,5.52536 -2.648357,2.13921 -6.283616,5.90842 -6.283616,5.90842 v -44.12872 c 0,0 5.291667,-2.26786 7.370538,-1.98437 2.078868,0.28348 8.707119,5.19412 8.707119,5.19412 0,0 2.088121,-1.84457 1.521161,-4.77389 -0.56696,-2.92931 0.76661,-5.99521 0.76661,-5.99521 0,0 4.31314,4.34655 3.93517,8.78777 -0.37798,4.44122 0,3.49628 0.56696,3.40179 0.28348,-0.0473 1.51926,-2.72935 2.78537,-4.76856 1.26611,-2.03921 2.53992,-6.65893 3.50185,-5.0539 1.14362,1.9082 1.3324,5.05038 0.94296,7.11455 -0.38944,2.06417 -3.17169,6.14016 -4.39536,7.5271 0.29642,1.38695 1.6064,5.29167 2.74033,6.70908 1.13393,1.41741 4.51151,5.80717 5.85863,5.29167 2.56477,-0.98146 2.91379,-1.45911 3.57456,-2.48452 0.66077,-1.02542 1.18823,-2.3288 1.18823,-2.3288 0,0 2.56623,1.47331 1.90478,4.30813 -0.66146,2.83483 -0.80894,4.09596 -0.80894,4.09596 0,0 2.69071,2.14471 3.77976,1.98438 3.86198,-3.53461 11.43378,-12.18973 11.52828,-19.18229 0.0945,-6.99256 1.03811,-0.90089 1.20271,0.94365 0.1646,1.84453 0.53474,5.03933 -0.16033,8.27743 z"
         style="fill:#333333;fill-opacity:1;stroke:none;stroke-width:0.5;stroke-linecap:butt;stroke-linejoin:miter;stroke-miterlimit:4;stroke-dasharray:none;stroke-opacity:1" />
      <circle
         r="1.3336732"
         cy="130.28"
         cx="110.87985"
         id="circle4542"
         style="fill:#ffffff;fill-opacity:1;stroke:#fcf4f5;stroke-width:0.28268439;stroke-miterlimit:4;stroke-dasharray:none;stroke-opacity:1" />
    </g>
    <path
       sodipodi:type="star"
       style="fill:#241c1f;fill-opacity:1;stroke:#000000;stroke-width:1.72178245;stroke-miterlimit:4;stroke-dasharray:none;stroke-opacity:1"
       id="path827"
       sodipodi:sides="6"
       sodipodi:cx="191.39481"
       sodipodi:cy="106.02528"
       sodipodi:r1="30.247541"
       sodipodi:r2="15.123772"
       sodipodi:arg1="0.78539816"
       sodipodi:arg2="1.3089969"
       inkscape:flatsided="true"
       inkscape:rounded="0"
       inkscape:randomized="0"
       d="m 212.78305,127.41353 -29.21688,7.82864 -21.38825,-21.38825 7.82864,-29.216878 29.21689,-7.82864 21.38824,21.388242 z"
       inkscape:transform-center-y="-1.2009933"
       transform="matrix(0.41068299,0.41068301,-0.41068301,0.41068299,163.67367,-25.658551)" />
    <path
       id="path829"
       d="m 190.09974,83.550282 c 0,0 -0.70218,1.61469 -0.40359,3.15743 0.2986,1.54275 -0.80151,2.51458 -0.80151,2.51458 0,0 -3.66045,-0.51277 -5.02103,-1.32355 l -3.30817,8.74893 3.04359,7.919818 2.11667,1.5875 c 0.95435,-0.68919 2.10674,-1.45919 2.7638,-1.40445 1.19439,0.0995 1.6424,1.64235 2.58796,2.43861 0.94555,0.79626 5.77285,2.63782 6.5691,2.88665 0.79626,0.24887 3.28469,0.74643 2.58796,0.34829 -0.69673,-0.39813 -3.40003,-3.03576 -2.389,-2.48821 0.45815,0.24811 5.82252,2.83632 6.27042,2.23913 0.44789,-0.5972 0.24908,-3.28455 0.24908,-3.28455 0,0 2.04044,-2.73687 3.4339,-4.67775 1.39343,-1.94087 2.02397,-3.988858 2.39003,-5.694228 0.36602,-1.70538 0.17145,-3.38799 0.0847,-4.35942 -0.0867,-0.97144 -0.58375,-4.17931 -0.63355,-0.49661 -0.0498,3.68269 -4.03753,8.24069 -6.07147,10.102228 -0.57356,0.0844 -1.99057,-1.0449 -1.99057,-1.0449 0,0 0.0774,-0.6645 0.42581,-2.157488 0.34836,-1.49298 -1.00304,-2.2686 -1.00304,-2.2686 0,0 -0.2778,0.68623 -0.6258,1.22628 -0.348,0.54004 -0.53182,0.79156 -1.88257,1.30845 -0.70948,0.27149 -2.48841,-2.04042 -3.0856,-2.78691 -0.59719,-0.74649 -1.28721,-2.80268 -1.44333,-3.53312 0.64446,-0.73045 2.11,-2.8775 2.31511,-3.96461 0.2051,-1.08712 0.10568,-2.74158 -0.49661,-3.74655 -0.50661,-0.8453 -1.17752,1.58737 -1.84433,2.66134 -0.66681,1.07397 -1.3178,2.48658 -1.4671,2.51148 -0.29859,0.0498 -0.49776,0.54738 -0.29869,-1.79163 0.19906,-2.339 -2.07222,-4.62814 -2.07222,-4.62814 z"
       style="fill:#ffffff;fill-opacity:1;stroke:none;stroke-width:0.26332921;stroke-linecap:butt;stroke-linejoin:miter;stroke-miterlimit:4;stroke-dasharray:none;stroke-opacity:1"
       inkscape:connector-curvature="0"
       sodipodi:nodetypes="cccccccccccccccccsccccccscccscccc" />
    <circle
       style="fill:#000000;fill-opacity:1;stroke:#fcf4f5;stroke-width:0.14887811;stroke-miterlimit:4;stroke-dasharray:none;stroke-opacity:1"
       id="circle831"
       cx="195.18253"
       cy="100.41299"
       r="0.70239025" />
    <path
       inkscape:export-ydpi="210.13158"
       inkscape:export-xdpi="210.13158"
       transform="matrix(0.41068299,0.41068301,-0.41068301,0.41068299,163.67367,-25.658551)"
       inkscape:transform-center-y="-1.2009933"
       d="m 212.78305,127.41353 -29.21688,7.82864 -21.38825,-21.38825 7.82864,-29.216878 29.21689,-7.82864 21.38824,21.388242 z"
       inkscape:randomized="0"
       inkscape:rounded="0"
       inkscape:flatsided="true"
       sodipodi:arg2="1.3089969"
       sodipodi:arg1="0.78539816"
       sodipodi:r2="15.123772"
       sodipodi:r1="30.247541"
       sodipodi:cy="106.02528"
       sodipodi:cx="191.39481"
       sodipodi:sides="6"
       id="path833"
       style="fill:none;fill-opacity:1;stroke:#000000;stroke-width:1.72178245;stroke-miterlimit:4;stroke-dasharray:none;stroke-opacity:1"
       sodipodi:type="star" />
    <ellipse
       ry="15.164894"
       rx="14.831533"
       cy="81.26194"
       cx="195.54262"
       id="ellipse837"
       style="fill:#ffffff;fill-opacity:0.0552486;stroke:none;stroke-width:1;stroke-miterlimit:4;stroke-dasharray:none;stroke-opacity:1" />
  </g>
</svg>
