<?xml version="1.0" encoding="UTF-8" standalone="no"?>
<!-- Created with Inkscape (http://www.inkscape.org/) -->

<svg
   xmlns:dc="http://purl.org/dc/elements/1.1/"
   xmlns:cc="http://creativecommons.org/ns#"
   xmlns:rdf="http://www.w3.org/1999/02/22-rdf-syntax-ns#"
   xmlns:svg="http://www.w3.org/2000/svg"
   xmlns="http://www.w3.org/2000/svg"
   xmlns:sodipodi="http://sodipodi.sourceforge.net/DTD/sodipodi-0.dtd"
   xmlns:inkscape="http://www.inkscape.org/namespaces/inkscape"
   width="63.43531mm"
   height="71.641312mm"
   viewBox="0 0 63.435308 71.641312"
   version="1.1"
   id="svg1524"
   inkscape:version="0.92.3 (2405546, 2018-03-11)"
   sodipodi:docname="logo.svg">
  <defs
     id="defs1518" />
  <sodipodi:namedview
     id="base"
     pagecolor="#ffffff"
     bordercolor="#666666"
     borderopacity="1.0"
     inkscape:pageopacity="0.0"
     inkscape:pageshadow="2"
     inkscape:zoom="0.7"
     inkscape:cx="106.1934"
     inkscape:cy="245.71831"
     inkscape:document-units="mm"
     inkscape:current-layer="layer1"
     showgrid="false"
     fit-margin-top="0"
     fit-margin-left="0"
     fit-margin-right="0"
     fit-margin-bottom="0"
     inkscape:window-width="1360"
     inkscape:window-height="705"
     inkscape:window-x="-8"
     inkscape:window-y="139"
     inkscape:window-maximized="1" />
  <metadata
     id="metadata1521">
    <rdf:RDF>
      <cc:Work
         rdf:about="">
        <dc:format>image/svg+xml</dc:format>
        <dc:type
           rdf:resource="http://purl.org/dc/dcmitype/StillImage" />
        <dc:title></dc:title>
      </cc:Work>
    </rdf:RDF>
  </metadata>
  <g
     inkscape:label="Calque 1"
     inkscape:groupmode="layer"
     id="layer1"
     transform="translate(-105.16394,-76.796855)">
    <g
       id="g1037">
      <g
         transform="translate(22.300595,-1.5119048)"
         id="g1028">
        <path
           style="fill:#333333;fill-opacity:1;stroke:none;stroke-width:0.5;stroke-linecap:butt;stroke-linejoin:miter;stroke-miterlimit:4;stroke-dasharray:none;stroke-opacity:1"
           d="m 139.37373,122.88544 c -0.69507,3.2381 -1.89283,7.12639 -4.53866,10.81165 -2.64584,3.68527 -6.52009,8.88244 -6.52009,8.88244 0,0 0.37797,5.10268 -0.47247,6.23661 -0.85045,1.13393 -11.03633,-3.78111 -11.90625,-4.25223 -1.91971,-1.03965 3.21279,3.96875 4.53571,4.7247 1.32292,0.75596 -3.40178,-0.18899 -4.91369,-0.66146 -1.5119,-0.47247 -10.67783,-3.96875 -12.47321,-5.48065 -1.79539,-1.51191 -2.64583,-4.44122 -4.91369,-4.63021 -2.267858,-0.18899 -6.376065,3.38615 -9.024422,5.52536 -2.648357,2.13921 -6.283616,5.90842 -6.283616,5.90842 v -44.12872 c 0,0 5.291667,-2.26786 7.370538,-1.98437 2.078868,0.28348 8.707119,5.19412 8.707119,5.19412 0,0 2.088121,-1.84457 1.521161,-4.77389 -0.56696,-2.92931 0.76661,-5.99521 0.76661,-5.99521 0,0 4.31314,4.34655 3.93517,8.78777 -0.37798,4.44122 0,3.49628 0.56696,3.40179 0.28348,-0.0473 1.51926,-2.72935 2.78537,-4.76856 1.26611,-2.03921 2.53992,-6.65893 3.50185,-5.0539 1.14362,1.9082 1.3324,5.05038 0.94296,7.11455 -0.38944,2.06417 -3.17169,6.14016 -4.39536,7.5271 0.29642,1.38695 1.6064,5.29167 2.74033,6.70908 1.13393,1.41741 4.51151,5.80717 5.85863,5.29167 2.56477,-0.98146 2.91379,-1.45911 3.57456,-2.48452 0.66077,-1.02542 1.18823,-2.3288 1.18823,-2.3288 0,0 2.56623,1.47331 1.90478,4.30813 -0.66146,2.83483 -0.80894,4.09596 -0.80894,4.09596 0,0 2.69071,2.14471 3.77976,1.98438 3.86198,-3.53461 11.43378,-12.18973 11.52828,-19.18229 0.0945,-6.99256 1.03811,-0.90089 1.20271,0.94365 0.1646,1.84453 0.53474,5.03933 -0.16033,8.27743 z"
           id="path983"
           inkscape:connector-curvature="0"
           sodipodi:nodetypes="zsccsccsszccccccccsszcsszccccszz" />
        <circle
           style="fill:#ffffff;fill-opacity:1;stroke:#fcf4f5;stroke-width:0.28268439;stroke-miterlimit:4;stroke-dasharray:none;stroke-opacity:1"
           id="path997"
           cx="110.87985"
           cy="130.28"
           r="1.3336732" />
      </g>
      <path
         inkscape:connector-curvature="0"
         id="path1001"
         d="m 153.7098,101.4817 c 1.34712,2.71383 2.24737,6.29953 0.33869,8.97085 -1.68781,1.96432 -4.33118,2.67159 -6.72448,3.36311 -2.17456,0.20653 0.88832,-0.56934 1.42542,-1.10048 1.87633,-1.12508 3.37546,-3.70308 2.02633,-5.77194 -1.07895,-1.41874 -2.58924,-3.11483 -1.76696,-5.03778 0.87001,-1.70983 2.70442,-0.275 3.98532,-0.0203 0.4685,0.29196 1.94227,-0.0889 0.71568,-0.40341 z"
         style="fill:#333333;fill-opacity:1;stroke:none;stroke-width:0.26458332px;stroke-linecap:butt;stroke-linejoin:miter;stroke-opacity:1" />
      <path
         transform="matrix(0.56100341,0.15032042,-0.15032042,0.56100341,59.596299,3.7597271)"
         inkscape:transform-center-y="-1.0400914"
         inkscape:transform-center-x="0.6004954"
         d="m 212.78305,127.41353 -29.21688,7.82864 -21.38825,-21.38825 7.82864,-29.216878 29.21689,-7.82864 21.38824,21.388242 z"
         inkscape:randomized="0"
         inkscape:rounded="0"
         inkscape:flatsided="true"
         sodipodi:arg2="1.3089969"
         sodipodi:arg1="0.78539816"
         sodipodi:r2="15.123772"
         sodipodi:r1="30.247541"
         sodipodi:cy="106.02528"
         sodipodi:cx="191.39481"
         sodipodi:sides="6"
         id="path1024"
         style="fill:#333333;fill-opacity:1;stroke:none;stroke-width:0.5;stroke-miterlimit:4;stroke-dasharray:none;stroke-opacity:1"
         sodipodi:type="star" />
      <text
         transform="scale(-1,1)"
         id="text875"
         y="102.21517"
         x="-159.61179"
         style="font-style:normal;font-weight:normal;font-size:9.06169796px;line-height:1.25;font-family:sans-serif;letter-spacing:0px;word-spacing:0px;fill:#ffffff;fill-opacity:1;stroke:none;stroke-width:0.22654244"
         xml:space="preserve"><tspan
           style="font-style:normal;font-variant:normal;font-weight:bold;font-stretch:normal;font-size:30.20566368px;font-family:Consolas;-inkscape-font-specification:'Consolas Bold';font-variant-ligatures:normal;font-variant-caps:normal;font-variant-numeric:normal;font-feature-settings:normal;text-align:start;writing-mode:lr-tb;text-anchor:start;fill:#ffffff;stroke-width:0.22654244"
           y="102.21517"
           x="-159.61179"
           id="tspan873"
           sodipodi:role="line">R</tspan></text>
    </g>
  </g>
</svg>
